<svg xmlns="http://www.w3.org/2000/svg" viewBox="0 0 512 512">
  <defs>
    <clipPath id="pin-clip">
      <path d="M256 100 C188 100 134 154 134 222 C134 310 256 420 256 420 C256 420 378 310 378 222 C378 154 324 100 256 100Z"/>
    </clipPath>
  </defs>

  <!-- 보라 배경 (투명 없음, 꽉 채움) -->
  <rect width="512" height="512" fill="#7c3aed"/>

  <!-- 그림자 -->
  <ellipse cx="256" cy="421" rx="42" ry="8" fill="black" opacity="0.3"/>

  <!-- 흰색 핀 -->
  <path d="M256 100 C188 100 134 154 134 222 C134 310 256 420 256 420 C256 420 378 310 378 222 C378 154 324 100 256 100Z" fill="white"/>

  <!-- 연한 바이올렛 대각선 -->
  <polygon points="378,420 134,420 378,100" fill="#ddd6fe" clip-path="url(#pin-clip)"/>

  <!-- 핀 내부 구멍 -->
  <circle cx="256" cy="218" r="52" fill="#7c3aed"/>
</svg>
